<svg xmlns="http://www.w3.org/2000/svg" xmlns:xlink="http://www.w3.org/1999/xlink" width="500" zoomAndPan="magnify" viewBox="0 0 375 374.999991" height="500" preserveAspectRatio="xMidYMid meet" version="1.0"><defs><filter x="0%" y="0%" width="100%" height="100%" id="e897c2717e"><feColorMatrix values="0 0 0 0 1 0 0 0 0 1 0 0 0 0 1 0 0 0 1 0" color-interpolation-filters="sRGB"/></filter><clipPath id="1e84c1893f"><path d="M 64 49.628906 L 363.992188 49.628906 L 363.992188 325.628906 L 64 325.628906 Z M 64 49.628906 " clip-rule="nonzero"/></clipPath><mask id="9999877863"><g filter="url(#e897c2717e)"><rect x="-37.5" width="450" fill="#000000" y="-37.499999" height="449.999989" fill-opacity="0.12"/></g></mask><clipPath id="0e419639b6"><path d="M 0.03125 1.015625 L 10.53125 1.015625 L 10.53125 9.265625 L 0.03125 9.265625 Z M 0.03125 1.015625 " clip-rule="nonzero"/></clipPath><clipPath id="dcc10745e3"><rect x="0" width="11" y="0" height="10"/></clipPath></defs><g clip-path="url(#1e84c1893f)"><path fill="#ffffff" d="M 75.238281 276.878906 L 253.726562 276.878906 C 262.007812 276.878906 269.023438 270.703125 270.144531 262.566406 L 291.894531 99.304688 C 291.894531 99.304688 291.894531 99.304688 291.894531 99.234375 C 295.542969 70.957031 319.820312 49.558594 348.375 49.558594 L 352.65625 49.558594 C 358.476562 49.558594 363.179688 54.261719 363.179688 60.082031 C 363.179688 65.90625 358.476562 70.605469 352.65625 70.605469 L 348.375 70.605469 C 330.34375 70.605469 315.046875 84.078125 312.734375 101.96875 C 312.734375 101.96875 312.734375 101.96875 312.734375 102.039062 L 290.984375 265.300781 C 288.527344 283.894531 272.53125 297.925781 253.726562 297.925781 L 247.414062 297.925781 C 247.203125 313.222656 234.855469 325.570312 219.488281 325.570312 C 204.125 325.570312 191.777344 313.222656 191.566406 297.925781 L 147.925781 297.925781 C 147.714844 313.222656 135.367188 325.570312 120.003906 325.570312 C 104.636719 325.570312 92.289062 313.222656 92.078125 297.925781 L 75.238281 297.925781 C 69.417969 297.925781 64.714844 293.226562 64.714844 287.402344 C 64.714844 281.578125 69.417969 276.878906 75.238281 276.878906 Z M 75.238281 276.878906 " fill-opacity="1" fill-rule="nonzero"/></g><path fill="#c6dec6" d="M 138.242188 97.898438 L 172.972656 93.691406 C 186.234375 114.878906 215 151.363281 265.9375 173.113281 L 256.253906 245.445312 C 184.339844 203.980469 149.539062 127.578125 138.242188 97.898438 Z M 138.242188 97.898438 " fill-opacity="1" fill-rule="nonzero"/><path fill="#b8d2b3" d="M 116.703125 100.496094 C 126.597656 128.699219 162.167969 214.71875 242.644531 262.144531 L 132.210938 262.144531 C 95.164062 197.386719 86.042969 126.59375 83.941406 104.425781 Z M 116.703125 100.496094 " fill-opacity="1" fill-rule="nonzero"/><path fill="#8fa38a" d="M 268.882812 151.363281 C 232.257812 134.3125 209.175781 108.984375 196.40625 90.882812 L 264.8125 82.675781 C 268.039062 82.253906 271.269531 83.445312 273.582031 85.761719 C 275.898438 88.078125 276.953125 91.304688 276.53125 94.53125 Z M 268.882812 151.363281 " fill-opacity="1" fill-rule="nonzero"/><path fill="#a9c5a0" d="M 14.410156 115.929688 C 16.164062 113.6875 18.691406 112.28125 21.496094 111.933594 L 63.101562 106.949219 C 65.207031 130.453125 73.835938 197.316406 108.144531 262.144531 L 64.785156 262.144531 C 45.421875 262.144531 28.863281 247.691406 26.339844 228.46875 L 12.445312 123.789062 C 11.886719 120.984375 12.65625 118.175781 14.410156 115.929688 Z M 14.410156 115.929688 " fill-opacity="1" fill-rule="nonzero"/><g mask="url(#9999877863)"><g transform="matrix(1, 0, 0, 1, 198, 160)"><g clip-path="url(#dcc10745e3)"><g clip-path="url(#0e419639b6)"><path fill="#8fa38a" d="M 7.066406 7.734375 C 7.550781 7.734375 7.945312 8.128906 7.945312 8.613281 C 7.945312 9.097656 7.550781 9.488281 7.066406 9.488281 C 6.582031 9.488281 6.191406 9.097656 6.191406 8.613281 C 6.191406 8.128906 6.582031 7.734375 7.066406 7.734375 Z M 10.4375 1.488281 C 10.4375 1.511719 10.441406 1.527344 10.4375 1.550781 C 10.4375 1.5625 10.4375 1.574219 10.433594 1.585938 C 10.429688 1.597656 10.429688 1.609375 10.425781 1.621094 C 10.414062 1.65625 10.40625 1.6875 10.398438 1.71875 C 10.363281 1.828125 10.332031 1.941406 10.292969 2.046875 C 10.175781 2.382812 10.054688 2.710938 9.921875 3.042969 C 9.773438 3.40625 9.617188 3.75 9.421875 4.09375 C 9.335938 4.238281 9.253906 4.367188 9.148438 4.496094 C 9.054688 4.605469 8.964844 4.6875 8.832031 4.746094 C 8.585938 4.824219 8.308594 4.839844 8.054688 4.855469 C 6.375 4.890625 4.5625 4.71875 2.980469 4.785156 C 2.914062 4.773438 2.859375 4.765625 2.820312 4.757812 C 2.199219 4.617188 5.273438 4.597656 5.28125 4.597656 C 5.988281 4.589844 8.050781 4.59375 8.667969 4.351562 C 8.71875 4.324219 8.769531 4.261719 8.804688 4.21875 C 8.886719 4.109375 8.953125 3.992188 9.019531 3.871094 C 9.152344 3.617188 9.226562 3.453125 9.332031 3.1875 C 8.261719 3.183594 7.289062 3.226562 6.226562 3.265625 C 5.347656 3.296875 4.425781 3.304688 3.871094 3.234375 C 3.839844 3.230469 3.800781 3.222656 3.773438 3.210938 C 3.726562 3.191406 3.699219 3.167969 3.671875 3.128906 C 3.660156 3.105469 3.660156 3.085938 3.671875 3.066406 C 3.695312 3.027344 3.773438 3.011719 3.832031 2.988281 C 4.261719 2.851562 4.808594 2.820312 5.277344 2.808594 C 5.800781 2.800781 9.371094 2.972656 9.492188 2.761719 C 9.613281 2.4375 9.683594 2.214844 9.785156 1.886719 C 9.789062 1.863281 9.796875 1.84375 9.800781 1.824219 C 9.222656 1.839844 8.640625 1.851562 8.0625 1.859375 C 7.796875 1.859375 4.148438 1.898438 3.613281 1.617188 C 3.574219 1.597656 3.550781 1.570312 3.550781 1.546875 C 3.582031 1.480469 3.75 1.449219 3.8125 1.4375 C 5.34375 1.195312 8.527344 1.269531 10.171875 1.265625 C 10.226562 1.265625 10.269531 1.277344 10.316406 1.308594 C 10.355469 1.332031 10.378906 1.355469 10.398438 1.390625 C 10.417969 1.425781 10.429688 1.453125 10.4375 1.488281 Z M 3.632812 5.972656 C 4.300781 6.109375 7.148438 6.082031 8.0625 6.125 C 8.324219 6.140625 8.542969 6.179688 8.777344 6.300781 C 8.871094 6.351562 8.941406 6.402344 9.007812 6.480469 C 9.078125 6.5625 9.113281 6.636719 9.125 6.742188 C 9.136719 6.847656 9.117188 6.929688 9.0625 7.023438 C 9.003906 7.113281 8.941406 7.171875 8.851562 7.230469 C 8.773438 7.277344 8.707031 7.3125 8.621094 7.34375 C 8.445312 7.410156 8.285156 7.441406 8.101562 7.472656 C 6.390625 7.59375 5.046875 7.390625 3.402344 7.347656 C 3.292969 7.332031 3.207031 7.3125 3.144531 7.300781 C 2.269531 7.09375 5.960938 7.214844 6.152344 7.214844 C 6.792969 7.203125 7.398438 7.175781 8.03125 7.050781 C 8.21875 7.015625 8.429688 6.964844 8.585938 6.851562 C 8.601562 6.839844 8.621094 6.820312 8.636719 6.804688 C 8.613281 6.78125 8.582031 6.765625 8.550781 6.75 C 8.390625 6.679688 8.222656 6.664062 8.046875 6.65625 C 6.960938 6.644531 4.429688 6.777344 3.480469 6.636719 C 3.078125 6.539062 2.820312 6.414062 2.542969 6.105469 C 2.335938 5.851562 2.222656 5.632812 2.105469 5.332031 C 2.035156 5.148438 1.964844 4.953125 1.910156 4.761719 C 1.683594 3.972656 1.5 3.152344 1.3125 2.351562 C 1.257812 2.117188 1.195312 1.929688 1.070312 1.726562 C 0.980469 1.597656 0.894531 1.507812 0.757812 1.429688 C 0.703125 1.402344 0.65625 1.386719 0.597656 1.375 C 0.539062 1.367188 0.492188 1.367188 0.4375 1.375 C 0.375 1.386719 0.332031 1.402344 0.277344 1.429688 C 0.253906 1.445312 0.222656 1.46875 0.195312 1.488281 C 0.15625 1.515625 0.113281 1.539062 0.0742188 1.527344 C 0.0351562 1.464844 0.101562 1.335938 0.132812 1.285156 C 0.1875 1.207031 0.246094 1.160156 0.328125 1.113281 C 0.339844 1.105469 0.351562 1.097656 0.363281 1.09375 C 0.4375 1.058594 0.503906 1.039062 0.585938 1.03125 C 0.691406 1.019531 0.777344 1.023438 0.878906 1.050781 C 1.121094 1.113281 1.28125 1.230469 1.449219 1.410156 C 1.660156 1.648438 1.769531 1.886719 1.871094 2.1875 C 2.113281 2.972656 2.332031 3.765625 2.578125 4.550781 C 2.695312 4.917969 2.828125 5.34375 3.070312 5.648438 C 3.238281 5.839844 3.390625 5.90625 3.632812 5.972656 Z M 4.234375 7.734375 C 4.714844 7.734375 5.109375 8.128906 5.109375 8.613281 C 5.109375 9.097656 4.714844 9.488281 4.234375 9.488281 C 3.75 9.488281 3.355469 9.097656 3.355469 8.613281 C 3.355469 8.128906 3.75 7.734375 4.234375 7.734375 " fill-opacity="1" fill-rule="evenodd"/></g></g></g></g></svg>