<svg xmlns="http://www.w3.org/2000/svg" xmlns:xlink="http://www.w3.org/1999/xlink" width="150" zoomAndPan="magnify" viewBox="0 0 112.5 56.249996" height="75" preserveAspectRatio="xMidYMid meet" version="1.0"><defs><g/><clipPath id="11992cab89"><path d="M 12 7.621094 L 50.417969 7.621094 L 50.417969 42.40625 L 12 42.40625 Z M 12 7.621094 " clip-rule="nonzero"/></clipPath><clipPath id="c6f491eee8"><path d="M 5.511719 14 L 18 14 L 18 35 L 5.511719 35 Z M 5.511719 14 " clip-rule="nonzero"/></clipPath><clipPath id="4bc1261d87"><path d="M 27.964844 19.789062 L 29.445312 19.789062 L 29.445312 21.269531 L 27.964844 21.269531 Z M 27.964844 19.789062 " clip-rule="nonzero"/></clipPath></defs><g fill="#202020" fill-opacity="1"><g transform="translate(44.970096, 27.729379)"><g><path d="M 8.515625 -11.390625 L 10.9375 -11.390625 L 10.9375 0 L 8.875 0 L 3.71875 -7.109375 L 3.71875 0 L 1.296875 0 L 1.296875 -11.390625 L 3.53125 -11.390625 L 8.515625 -4.4375 Z M 8.515625 -11.390625 "/></g></g></g><g fill="#202020" fill-opacity="1"><g transform="translate(57.203937, 27.729379)"><g><path d="M 9.65625 -4.421875 C 9.65625 -4.191406 9.640625 -3.957031 9.609375 -3.71875 L 2.984375 -3.71875 C 3.078125 -3.125 3.3125 -2.664062 3.6875 -2.34375 C 4.070312 -2.03125 4.550781 -1.875 5.125 -1.875 C 5.53125 -1.875 5.894531 -1.960938 6.21875 -2.140625 C 6.550781 -2.316406 6.804688 -2.5625 6.984375 -2.875 L 9.484375 -2.875 C 9.160156 -1.925781 8.609375 -1.164062 7.828125 -0.59375 C 7.046875 -0.03125 6.144531 0.25 5.125 0.25 C 4.257812 0.25 3.476562 0.046875 2.78125 -0.359375 C 2.09375 -0.765625 1.550781 -1.316406 1.15625 -2.015625 C 0.757812 -2.722656 0.5625 -3.515625 0.5625 -4.390625 C 0.5625 -5.265625 0.757812 -6.050781 1.15625 -6.75 C 1.550781 -7.457031 2.09375 -8.015625 2.78125 -8.421875 C 3.476562 -8.828125 4.257812 -9.03125 5.125 -9.03125 C 6.019531 -9.03125 6.804688 -8.820312 7.484375 -8.40625 C 8.171875 -7.988281 8.703125 -7.429688 9.078125 -6.734375 C 9.460938 -6.035156 9.65625 -5.265625 9.65625 -4.421875 Z M 5.125 -7.015625 C 4.59375 -7.015625 4.144531 -6.863281 3.78125 -6.5625 C 3.414062 -6.269531 3.171875 -5.863281 3.046875 -5.34375 L 7.28125 -5.34375 C 6.9375 -6.457031 6.21875 -7.015625 5.125 -7.015625 Z M 5.125 -7.015625 "/></g></g></g><g fill="#202020" fill-opacity="1"><g transform="translate(67.420492, 27.729379)"><g><path d="M 8.3125 -8.796875 L 10.078125 -8.796875 L 10.078125 -0.015625 L 8.21875 -0.015625 L 8.015625 -0.796875 C 7.640625 -0.472656 7.207031 -0.21875 6.71875 -0.03125 C 6.238281 0.15625 5.722656 0.25 5.171875 0.25 C 4.296875 0.25 3.507812 0.046875 2.8125 -0.359375 C 2.113281 -0.765625 1.5625 -1.316406 1.15625 -2.015625 C 0.757812 -2.722656 0.5625 -3.519531 0.5625 -4.40625 C 0.5625 -5.28125 0.757812 -6.066406 1.15625 -6.765625 C 1.5625 -7.472656 2.113281 -8.023438 2.8125 -8.421875 C 3.507812 -8.828125 4.296875 -9.03125 5.171875 -9.03125 C 5.734375 -9.03125 6.257812 -8.929688 6.75 -8.734375 C 7.238281 -8.546875 7.671875 -8.285156 8.046875 -7.953125 Z M 5.375 -2 C 5.820312 -2 6.226562 -2.101562 6.59375 -2.3125 C 6.957031 -2.519531 7.242188 -2.800781 7.453125 -3.15625 C 7.660156 -3.519531 7.765625 -3.9375 7.765625 -4.40625 C 7.765625 -4.863281 7.660156 -5.273438 7.453125 -5.640625 C 7.242188 -6.003906 6.957031 -6.289062 6.59375 -6.5 C 6.226562 -6.707031 5.820312 -6.8125 5.375 -6.8125 C 4.90625 -6.8125 4.488281 -6.707031 4.125 -6.5 C 3.769531 -6.289062 3.488281 -6.003906 3.28125 -5.640625 C 3.082031 -5.273438 2.984375 -4.863281 2.984375 -4.40625 C 2.984375 -3.9375 3.082031 -3.523438 3.28125 -3.171875 C 3.488281 -2.816406 3.769531 -2.53125 4.125 -2.3125 C 4.488281 -2.101562 4.90625 -2 5.375 -2 Z M 5.375 -2 "/></g></g></g><g fill="#202020" fill-opacity="1"><g transform="translate(78.645687, 27.729379)"><g><path d="M 5.625 -8.828125 L 6.40625 -8.828125 L 6.40625 -6.59375 L 5.390625 -6.59375 C 4.710938 -6.59375 4.226562 -6.429688 3.9375 -6.109375 C 3.65625 -5.796875 3.515625 -5.285156 3.515625 -4.578125 L 3.515625 0 L 1.140625 0 L 1.140625 -8.78125 L 2.671875 -8.78125 L 3.09375 -7.703125 C 3.6875 -8.453125 4.53125 -8.828125 5.625 -8.828125 Z M 5.625 -8.828125 "/></g></g></g><g fill="#202020" fill-opacity="1"><g transform="translate(44.970096, 42.500582)"><g><path d="M 15.25 0 L 12.75 0 L 11.625 -7.4375 L 8.234375 -0.015625 L 7.625 -0.015625 L 4.234375 -7.4375 L 3.109375 0 L 0.578125 0 L 2.375 -11.390625 L 4.84375 -11.390625 L 7.921875 -4.40625 L 11.015625 -11.390625 L 13.484375 -11.390625 Z M 15.25 0 "/></g></g></g><g fill="#202020" fill-opacity="1"><g transform="translate(60.831791, 42.500582)"><g><path d="M 8.3125 -8.796875 L 10.078125 -8.796875 L 10.078125 -0.015625 L 8.21875 -0.015625 L 8.015625 -0.796875 C 7.640625 -0.472656 7.207031 -0.21875 6.71875 -0.03125 C 6.238281 0.15625 5.722656 0.25 5.171875 0.25 C 4.296875 0.25 3.507812 0.046875 2.8125 -0.359375 C 2.113281 -0.765625 1.5625 -1.316406 1.15625 -2.015625 C 0.757812 -2.722656 0.5625 -3.519531 0.5625 -4.40625 C 0.5625 -5.28125 0.757812 -6.066406 1.15625 -6.765625 C 1.5625 -7.472656 2.113281 -8.023438 2.8125 -8.421875 C 3.507812 -8.828125 4.296875 -9.03125 5.171875 -9.03125 C 5.734375 -9.03125 6.257812 -8.929688 6.75 -8.734375 C 7.238281 -8.546875 7.671875 -8.285156 8.046875 -7.953125 Z M 5.375 -2 C 5.820312 -2 6.226562 -2.101562 6.59375 -2.3125 C 6.957031 -2.519531 7.242188 -2.800781 7.453125 -3.15625 C 7.660156 -3.519531 7.765625 -3.9375 7.765625 -4.40625 C 7.765625 -4.863281 7.660156 -5.273438 7.453125 -5.640625 C 7.242188 -6.003906 6.957031 -6.289062 6.59375 -6.5 C 6.226562 -6.707031 5.820312 -6.8125 5.375 -6.8125 C 4.90625 -6.8125 4.488281 -6.707031 4.125 -6.5 C 3.769531 -6.289062 3.488281 -6.003906 3.28125 -5.640625 C 3.082031 -5.273438 2.984375 -4.863281 2.984375 -4.40625 C 2.984375 -3.9375 3.082031 -3.523438 3.28125 -3.171875 C 3.488281 -2.816406 3.769531 -2.53125 4.125 -2.3125 C 4.488281 -2.101562 4.90625 -2 5.375 -2 Z M 5.375 -2 "/></g></g></g><g fill="#202020" fill-opacity="1"><g transform="translate(72.056986, 42.500582)"><g><path d="M 5.625 -8.828125 L 6.40625 -8.828125 L 6.40625 -6.59375 L 5.390625 -6.59375 C 4.710938 -6.59375 4.226562 -6.429688 3.9375 -6.109375 C 3.65625 -5.796875 3.515625 -5.285156 3.515625 -4.578125 L 3.515625 0 L 1.140625 0 L 1.140625 -8.78125 L 2.671875 -8.78125 L 3.09375 -7.703125 C 3.6875 -8.453125 4.53125 -8.828125 5.625 -8.828125 Z M 5.625 -8.828125 "/></g></g></g><g fill="#202020" fill-opacity="1"><g transform="translate(78.678224, 42.500582)"><g><path d="M 9.203125 0 L 6.328125 0 L 3.515625 -4.203125 L 3.515625 0 L 1.140625 0 L 1.140625 -11.953125 L 3.515625 -11.953125 L 3.515625 -4.875 L 6.140625 -8.78125 L 8.875 -8.78125 L 5.921875 -4.609375 Z M 9.203125 0 "/></g></g></g><g fill="#202020" fill-opacity="1"><g transform="translate(87.804795, 42.500582)"><g><path d="M 9.65625 -4.421875 C 9.65625 -4.191406 9.640625 -3.957031 9.609375 -3.71875 L 2.984375 -3.71875 C 3.078125 -3.125 3.3125 -2.664062 3.6875 -2.34375 C 4.070312 -2.03125 4.550781 -1.875 5.125 -1.875 C 5.53125 -1.875 5.894531 -1.960938 6.21875 -2.140625 C 6.550781 -2.316406 6.804688 -2.5625 6.984375 -2.875 L 9.484375 -2.875 C 9.160156 -1.925781 8.609375 -1.164062 7.828125 -0.59375 C 7.046875 -0.03125 6.144531 0.25 5.125 0.25 C 4.257812 0.25 3.476562 0.046875 2.78125 -0.359375 C 2.09375 -0.765625 1.550781 -1.316406 1.15625 -2.015625 C 0.757812 -2.722656 0.5625 -3.515625 0.5625 -4.390625 C 0.5625 -5.265625 0.757812 -6.050781 1.15625 -6.75 C 1.550781 -7.457031 2.09375 -8.015625 2.78125 -8.421875 C 3.476562 -8.828125 4.257812 -9.03125 5.125 -9.03125 C 6.019531 -9.03125 6.804688 -8.820312 7.484375 -8.40625 C 8.171875 -7.988281 8.703125 -7.429688 9.078125 -6.734375 C 9.460938 -6.035156 9.65625 -5.265625 9.65625 -4.421875 Z M 5.125 -7.015625 C 4.59375 -7.015625 4.144531 -6.863281 3.78125 -6.5625 C 3.414062 -6.269531 3.171875 -5.863281 3.046875 -5.34375 L 7.28125 -5.34375 C 6.9375 -6.457031 6.21875 -7.015625 5.125 -7.015625 Z M 5.125 -7.015625 "/></g></g></g><g fill="#202020" fill-opacity="1"><g transform="translate(98.02135, 42.500582)"><g><path d="M 5.4375 -2.109375 L 6.5 -2.109375 L 6.5 0 L 4.828125 0 C 3.867188 0 3.109375 -0.273438 2.546875 -0.828125 C 1.984375 -1.390625 1.703125 -2.160156 1.703125 -3.140625 L 1.703125 -6.875 L 0.109375 -6.875 L 0.109375 -7.390625 L 3.59375 -11.078125 L 4.03125 -11.078125 L 4.03125 -8.78125 L 6.453125 -8.78125 L 6.453125 -6.875 L 4.078125 -6.875 L 4.078125 -3.453125 C 4.078125 -3.023438 4.191406 -2.691406 4.421875 -2.453125 C 4.660156 -2.222656 5 -2.109375 5.4375 -2.109375 Z M 5.4375 -2.109375 "/></g></g></g><g clip-path="url(#11992cab89)"><path fill="#202020" d="M 13.707031 36.480469 L 36.375 36.480469 C 37.425781 36.480469 38.316406 35.695312 38.460938 34.664062 L 41.222656 13.929688 C 41.222656 13.929688 41.222656 13.929688 41.222656 13.917969 C 41.6875 10.328125 44.769531 7.609375 48.394531 7.609375 L 48.9375 7.609375 C 49.679688 7.609375 50.277344 8.207031 50.277344 8.949219 C 50.277344 9.6875 49.679688 10.285156 48.9375 10.285156 L 48.394531 10.285156 C 46.105469 10.285156 44.164062 11.996094 43.867188 14.265625 C 43.867188 14.265625 43.867188 14.265625 43.867188 14.277344 L 41.105469 35.011719 C 40.792969 37.371094 38.761719 39.152344 36.375 39.152344 L 35.574219 39.152344 C 35.546875 41.09375 33.976562 42.664062 32.027344 42.664062 C 30.074219 42.664062 28.507812 41.09375 28.480469 39.152344 L 22.9375 39.152344 C 22.910156 41.09375 21.34375 42.664062 19.390625 42.664062 C 17.441406 42.664062 15.871094 41.09375 15.847656 39.152344 L 13.707031 39.152344 C 12.96875 39.152344 12.371094 38.554688 12.371094 37.816406 C 12.371094 37.078125 12.96875 36.480469 13.707031 36.480469 Z M 13.707031 36.480469 " fill-opacity="1" fill-rule="nonzero"/></g><path fill="#c6dec6" d="M 21.710938 13.75 L 26.121094 13.214844 C 27.804688 15.90625 31.457031 20.539062 37.925781 23.300781 L 36.695312 32.488281 C 27.5625 27.222656 23.144531 17.519531 21.710938 13.75 Z M 21.710938 13.75 " fill-opacity="1" fill-rule="nonzero"/><path fill="#b8d2b3" d="M 18.972656 14.078125 C 20.230469 17.660156 24.746094 28.585938 34.96875 34.609375 L 20.941406 34.609375 C 16.238281 26.382812 15.078125 17.394531 14.8125 14.578125 Z M 18.972656 14.078125 " fill-opacity="1" fill-rule="nonzero"/><path fill="#8fa38a" d="M 38.300781 20.539062 C 33.648438 18.375 30.71875 15.15625 29.09375 12.859375 L 37.785156 11.816406 C 38.191406 11.761719 38.601562 11.914062 38.898438 12.207031 C 39.191406 12.503906 39.324219 12.914062 39.269531 13.320312 Z M 38.300781 20.539062 " fill-opacity="1" fill-rule="nonzero"/><g clip-path="url(#c6f491eee8)"><path fill="#a9c5a0" d="M 5.980469 16.039062 C 6.207031 15.753906 6.527344 15.578125 6.882812 15.53125 L 12.167969 14.898438 C 12.433594 17.882812 13.53125 26.375 17.886719 34.609375 L 12.378906 34.609375 C 9.921875 34.609375 7.816406 32.773438 7.496094 30.332031 L 5.734375 17.039062 C 5.660156 16.679688 5.757812 16.324219 5.980469 16.039062 Z M 5.980469 16.039062 " fill-opacity="1" fill-rule="nonzero"/></g><g clip-path="url(#4bc1261d87)"><path fill="#c6dec6" d="M 29.003906 20.78125 C 29.074219 20.78125 29.132812 20.835938 29.132812 20.910156 C 29.132812 20.980469 29.074219 21.039062 29.003906 21.039062 C 28.933594 21.039062 28.875 20.980469 28.875 20.910156 C 28.875 20.835938 28.933594 20.78125 29.003906 20.78125 Z M 29.5 19.859375 C 29.5 19.863281 29.5 19.863281 29.5 19.867188 C 29.5 19.871094 29.5 19.871094 29.5 19.871094 C 29.5 19.875 29.5 19.875 29.5 19.878906 C 29.496094 19.882812 29.496094 19.886719 29.496094 19.890625 C 29.488281 19.910156 29.484375 19.925781 29.480469 19.941406 C 29.460938 19.988281 29.445312 20.039062 29.425781 20.085938 C 29.402344 20.140625 29.378906 20.191406 29.351562 20.242188 C 29.339844 20.265625 29.328125 20.28125 29.308594 20.300781 C 29.296875 20.316406 29.285156 20.332031 29.265625 20.339844 C 29.226562 20.351562 29.1875 20.351562 29.148438 20.355469 C 28.902344 20.359375 28.632812 20.335938 28.402344 20.34375 C 28.390625 20.34375 28.382812 20.339844 28.378906 20.339844 C 28.285156 20.320312 28.738281 20.316406 28.742188 20.316406 C 28.84375 20.316406 29.148438 20.316406 29.238281 20.28125 C 29.246094 20.277344 29.253906 20.265625 29.261719 20.261719 C 29.273438 20.246094 29.28125 20.226562 29.292969 20.210938 C 29.3125 20.171875 29.324219 20.148438 29.335938 20.109375 C 29.179688 20.109375 29.035156 20.113281 28.878906 20.121094 C 28.75 20.125 28.613281 20.125 28.53125 20.117188 C 28.527344 20.117188 28.523438 20.113281 28.519531 20.113281 C 28.511719 20.109375 28.507812 20.105469 28.503906 20.101562 C 28.5 20.097656 28.5 20.09375 28.503906 20.089844 C 28.507812 20.085938 28.519531 20.082031 28.527344 20.078125 C 28.589844 20.058594 28.671875 20.054688 28.738281 20.054688 C 28.816406 20.050781 29.34375 20.078125 29.363281 20.046875 C 29.378906 20 29.390625 19.964844 29.40625 19.917969 C 29.40625 19.914062 29.40625 19.910156 29.40625 19.90625 C 29.320312 19.910156 29.234375 19.910156 29.152344 19.914062 C 29.109375 19.914062 28.574219 19.917969 28.496094 19.878906 C 28.488281 19.875 28.484375 19.871094 28.484375 19.867188 C 28.488281 19.855469 28.515625 19.851562 28.523438 19.851562 C 28.75 19.816406 29.21875 19.828125 29.460938 19.824219 C 29.46875 19.824219 29.476562 19.828125 29.484375 19.832031 C 29.488281 19.835938 29.492188 19.839844 29.496094 19.84375 C 29.5 19.847656 29.5 19.851562 29.5 19.859375 Z M 28.496094 20.519531 C 28.597656 20.539062 29.015625 20.535156 29.152344 20.542969 C 29.1875 20.542969 29.222656 20.550781 29.257812 20.566406 C 29.269531 20.574219 29.28125 20.582031 29.289062 20.59375 C 29.300781 20.605469 29.304688 20.617188 29.308594 20.632812 C 29.308594 20.648438 29.304688 20.660156 29.296875 20.675781 C 29.289062 20.6875 29.28125 20.695312 29.265625 20.707031 C 29.253906 20.710938 29.246094 20.71875 29.234375 20.722656 C 29.207031 20.730469 29.183594 20.738281 29.15625 20.742188 C 28.902344 20.757812 28.707031 20.730469 28.464844 20.722656 C 28.445312 20.71875 28.433594 20.71875 28.425781 20.714844 C 28.296875 20.683594 28.839844 20.703125 28.867188 20.703125 C 28.964844 20.699219 29.050781 20.695312 29.144531 20.679688 C 29.171875 20.671875 29.203125 20.664062 29.226562 20.648438 C 29.230469 20.648438 29.234375 20.644531 29.234375 20.640625 C 29.230469 20.640625 29.226562 20.636719 29.222656 20.632812 C 29.199219 20.625 29.175781 20.621094 29.148438 20.621094 C 28.988281 20.617188 28.613281 20.636719 28.476562 20.617188 C 28.414062 20.601562 28.378906 20.585938 28.335938 20.539062 C 28.304688 20.5 28.289062 20.46875 28.273438 20.425781 C 28.261719 20.398438 28.25 20.367188 28.242188 20.339844 C 28.210938 20.222656 28.183594 20.105469 28.15625 19.984375 C 28.148438 19.953125 28.136719 19.921875 28.121094 19.894531 C 28.105469 19.875 28.09375 19.859375 28.074219 19.851562 C 28.066406 19.847656 28.058594 19.84375 28.050781 19.84375 C 28.042969 19.839844 28.035156 19.839844 28.027344 19.84375 C 28.015625 19.84375 28.011719 19.847656 28.003906 19.851562 C 28 19.851562 27.996094 19.855469 27.992188 19.859375 C 27.984375 19.863281 27.980469 19.867188 27.972656 19.863281 C 27.964844 19.855469 27.976562 19.835938 27.980469 19.828125 C 27.988281 19.816406 27.996094 19.808594 28.011719 19.804688 C 28.011719 19.800781 28.011719 19.800781 28.015625 19.800781 C 28.027344 19.792969 28.035156 19.792969 28.046875 19.789062 C 28.0625 19.789062 28.074219 19.789062 28.089844 19.792969 C 28.128906 19.804688 28.152344 19.820312 28.175781 19.847656 C 28.207031 19.882812 28.222656 19.917969 28.238281 19.960938 C 28.273438 20.078125 28.304688 20.195312 28.339844 20.308594 C 28.359375 20.363281 28.378906 20.425781 28.414062 20.472656 C 28.4375 20.5 28.460938 20.511719 28.496094 20.519531 Z M 28.585938 20.78125 C 28.65625 20.78125 28.714844 20.835938 28.714844 20.910156 C 28.714844 20.980469 28.65625 21.039062 28.585938 21.039062 C 28.515625 21.039062 28.457031 20.980469 28.457031 20.910156 C 28.457031 20.835938 28.515625 20.78125 28.585938 20.78125 " fill-opacity="1" fill-rule="evenodd"/></g></svg>